<?xml version="1.0" encoding="UTF-8"?>
<svg version="1.1" xmlns="http://www.w3.org/2000/svg" width="624" height="624">
<path d="M0 0 C205.92 0 411.84 0 624 0 C624 205.92 624 411.84 624 624 C418.08 624 212.16 624 0 624 C0 418.08 0 212.16 0 0 Z " fill="#61C9FC" transform="translate(0,0)"/>
<path d="M0 0 C1.2276709 -0.0071553 2.4553418 -0.01431061 3.72021484 -0.02168274 C5.07818578 -0.02452292 6.43615699 -0.02723466 7.79412842 -0.02983093 C9.22686934 -0.03609904 10.65960865 -0.04274615 12.09234619 -0.04974365 C16.79859287 -0.07076357 21.50483976 -0.08115129 26.21112061 -0.09111023 C27.83655565 -0.09516002 29.46199053 -0.09927701 31.08742523 -0.10346031 C38.73340455 -0.1225157 46.37937425 -0.13674011 54.02537274 -0.14507228 C62.81844566 -0.15481476 71.61126483 -0.18105407 80.40424848 -0.22157317 C87.21896221 -0.25188473 94.03360391 -0.26655572 100.84838367 -0.26985329 C104.90889681 -0.27218875 108.96913905 -0.28094898 113.02957916 -0.30631447 C116.86119364 -0.3298618 120.69236409 -0.33372349 124.52403259 -0.32355309 C125.91703024 -0.32306384 127.31005175 -0.32919976 128.70298004 -0.34310913 C150.74103456 -0.55053859 168.9648122 6.77806042 184.96112061 22.00654602 C195.98442167 33.62570119 203.11528394 50.11994923 203.14170837 66.1206665 C203.14597336 67.29363281 203.15023834 68.46659912 203.15463257 69.67510986 C203.15417938 70.94842667 203.1537262 72.22174347 203.15325928 73.53364563 C203.1562543 74.8993387 203.15965762 76.26503092 203.16343689 77.63072205 C203.1722515 81.33167365 203.17461409 85.0326021 203.17525268 88.73356318 C203.17596524 91.05238441 203.17810358 93.37119983 203.18074989 95.69001961 C203.18999873 103.79919429 203.19408583 111.90835257 203.19329834 120.01753235 C203.19269941 127.54274644 203.20321594 135.06788841 203.219042 142.59308428 C203.23218661 149.07746588 203.23747927 155.56182413 203.23684293 162.04621893 C203.23658973 165.90816729 203.23934044 169.77005168 203.25002098 173.63198662 C203.25981777 177.27393485 203.25970332 180.91575955 203.25250435 184.55771255 C203.25098659 186.50497295 203.25922587 188.45223363 203.26794434 190.3994751 C203.17525747 216.87965653 194.84045206 234.54691798 176.64715576 253.43135071 C174.48961875 255.6897913 172.39987402 258.00426855 170.32049561 260.33467102 C167.1150933 263.91927064 163.88464316 267.47951778 160.63299561 271.02217102 C159.94258179 271.77445984 159.94258179 271.77445984 159.23822021 272.54194641 C157.3567001 274.59120783 155.47432152 276.63967978 153.59197998 278.68818665 C148.89561441 283.80027476 144.20474421 288.91602258 139.57049561 294.08467102 C138.05081293 295.77320732 136.52988242 297.46062105 135.00799561 299.14717102 C134.53716553 299.66988586 134.06633545 300.19260071 133.58123779 300.7311554 C114.29351746 322.09029007 114.29351746 322.09029007 100.32049561 323.52607727 C88.93440405 323.88189263 80.81137707 321.40152489 72.04705811 314.12373352 C64.68113986 306.98359055 60.99432749 297.96180952 60.63618469 287.73545837 C60.62213989 285.76678875 60.62393023 283.79796121 60.63909912 281.82929993 C60.6334494 280.20279259 60.6334494 280.20279259 60.62768555 278.54342651 C60.62128493 276.20546454 60.62155295 273.86747651 60.62787056 271.52951431 C60.63703386 267.82029757 60.62669648 264.11158064 60.61125183 260.40238953 C60.57633862 251.19186407 60.56881992 241.98135035 60.5713501 232.77076721 C60.57301948 224.97798989 60.55920466 217.18557639 60.52287102 209.39287949 C60.51210445 205.754693 60.52414119 202.11703562 60.53669739 198.47886658 C60.52778638 196.22718293 60.51770971 193.97550349 60.50628662 191.72383118 C60.51603012 190.72605148 60.52577362 189.72827179 60.53581238 188.70025635 C60.40604949 175.79021377 55.66971295 165.3126099 46.94158936 155.92451477 C36.17550902 145.62066329 23.42273515 142.83149665 8.97137451 142.89179993 C7.90508316 142.88817947 6.83879181 142.88455902 5.7401886 142.88082886 C3.43876624 142.87396777 1.13732773 142.87142321 -1.16410446 142.87277603 C-4.81409331 142.87374646 -8.46379185 142.8607379 -12.11373901 142.84379578 C-22.48654964 142.79767871 -32.85932904 142.77292281 -43.23223877 142.76631165 C-49.59049497 142.76128343 -55.94844601 142.73696999 -62.30659866 142.70098495 C-64.72015166 142.69122083 -67.13374681 142.68883639 -69.54731369 142.69415665 C-72.93073681 142.70126616 -76.31325638 142.683865 -79.69659424 142.66133118 C-81.17296104 142.67358986 -81.17296104 142.67358986 -82.67915344 142.68609619 C-93.03041373 142.56420923 -102.42770162 139.35964576 -109.99200439 132.14717102 C-118.33926799 123.09450487 -120.79109963 115.3224709 -120.32794189 103.11982727 C-119.39776763 92.11997582 -114.67659927 85.7664207 -106.99200439 78.14717102 C-106.37841064 77.50908508 -105.76481689 76.87099915 -105.13262939 76.21357727 C-102.29474964 73.29108183 -99.34141107 70.55019915 -96.25762939 67.88935852 C-92.18237821 64.33889006 -88.23228687 60.67177594 -84.30450439 56.95967102 C-82.8986227 55.63636296 -81.49236778 54.3134513 -80.08575439 52.99092102 C-79.39481689 52.34123352 -78.70387939 51.69154602 -77.99200439 51.02217102 C-73.54567348 46.85373579 -69.05776389 42.73027181 -64.57305908 38.60322571 C-62.40383104 36.60549933 -60.23804457 34.6040635 -58.07281494 32.602005 C-56.98195103 31.59476697 -55.8896759 30.58905505 -54.79595947 29.58491516 C-52.15716411 27.16081763 -49.53999656 24.72073291 -46.96466064 22.22920227 C-35.97414863 11.6837159 -24.57105817 5.27465526 -9.99200439 1.14717102 C-9.0879228 0.87606616 -9.0879228 0.87606616 -8.16557693 0.59948444 C-5.40808962 0.02566024 -2.81756649 0.01128543 0 0 Z " fill="#EDF9FE" transform="translate(269.99200439453125,150.8528289794922)"/>
<path d="M0 0 C2.29969246 1.4338798 4.38059442 2.96778995 6.48046875 4.6796875 C7.51107422 5.50726563 7.51107422 5.50726563 8.5625 6.3515625 C16.04289558 13.0453008 21.88927833 23.44685305 22.61547852 33.55981445 C23.33183079 48.29160754 21.34766937 60.11595239 11.48046875 71.6796875 C3.19448997 80.44311116 -6.97204371 84.63099457 -18.046875 88.9375 C-19.02544464 89.32252686 -20.00401428 89.70755371 -21.01223755 90.10424805 C-23.08942992 90.92108888 -25.16740964 91.73593 -27.24612427 92.54888916 C-32.66114963 94.66672686 -38.07049697 96.79898133 -43.48046875 98.9296875 C-44.53756546 99.34558136 -45.59466217 99.76147522 -46.68379211 100.18997192 C-54.67429223 103.3368401 -62.63820743 106.54183006 -70.58203125 109.8046875 C-82.17596858 114.56419804 -93.83235855 119.15436269 -105.51953125 123.6796875 C-104.79362436 118.67492757 -102.87227071 114.21045397 -100.99707031 109.55004883 C-100.63432007 108.63879242 -100.27156982 107.72753601 -99.89782715 106.78866577 C-98.69793372 103.7779346 -97.49175423 100.76976861 -96.28515625 97.76171875 C-95.44634208 95.66299851 -94.60778384 93.56417597 -93.76947021 91.46525574 C-92.01024991 87.06351845 -90.24791666 82.66304383 -88.48339844 78.26342773 C-86.23038346 72.64508315 -83.98507645 67.02369674 -81.74213028 61.40132618 C-80.01054941 57.06330133 -78.27483203 52.72694074 -76.5378952 48.39105797 C-75.70899912 46.32047732 -74.88136794 44.24938982 -74.05506134 42.17777443 C-72.89408201 39.2689189 -71.72752897 36.36235784 -70.55957031 33.45629883 C-70.22378967 32.61178665 -69.88800903 31.76727448 -69.54205322 30.89717102 C-63.44640481 15.79020292 -56.75756534 4.88735119 -41.34375 -2.19921875 C-27.75995842 -7.59140158 -13.03800176 -6.8323172 0 0 Z " fill="#DBF1FE" transform="translate(259.51953125,347.3203125)"/>
</svg>
